<svg viewBox="0 0 24 24" xmlns="http://www.w3.org/2000/svg"><path d="M16.434 5.34c3.119-.514 5.544-.04 6.327 1.641.784 1.681-.41 3.844-2.81 5.902a8.001 8.001 0 0 1-12.386 5.776c-3.119.516-5.545.04-6.328-1.64-.784-1.682.411-3.845 2.811-5.904A8.001 8.001 0 0 1 16.434 5.34Zm1.919 1.797a7.966 7.966 0 0 1 1.457 3.12c.95-1.021 1.383-1.906 1.139-2.43-.245-.525-1.202-.761-2.596-.69ZM5.647 16.863a7.966 7.966 0 0 1-1.457-3.122c-.951 1.022-1.385 1.908-1.14 2.432.244.525 1.202.762 2.597.69ZM18 11.879a6 6 0 1 0-9.947 4.639c1.567-.344 3.37-.939 5.215-1.8 1.845-.86 3.46-1.859 4.732-2.84Zm-.695 2.928a29.861 29.861 0 0 1-3.192 1.725c-1.142.532-2.276.98-3.37 1.336a6 6 0 0 0 6.563-3.06Z" fill-rule="evenodd" fill="#ff0000" class="fill-000000"></path></svg>